<svg width="24" height="28" viewBox="0 0 24 28" fill="#47474D" xmlns="http://www.w3.org/2000/svg">
<path d="M12 3.64434L5.40001 10.0232C4.09481 11.2848 3.20599 12.8922 2.84594 14.642C2.48589 16.3918 2.67078 18.2055 3.37722 19.8537C4.08367 21.502 5.27994 22.9108 6.81478 23.9019C8.34962 24.8931 10.1541 25.4221 12 25.4221C13.8459 25.4221 15.6504 24.8931 17.1852 23.9019C18.7201 22.9108 19.9163 21.502 20.6228 19.8537C21.3292 18.2055 21.5141 16.3918 21.1541 14.642C20.794 12.8922 19.9052 11.2848 18.6 10.0232L12 3.64434ZM12 0L20.4853 8.20106C22.1636 9.82307 23.3064 11.8896 23.7694 14.1394C24.2324 16.3892 23.9948 18.7212 23.0865 20.8404C22.1783 22.9597 20.6402 24.771 18.6668 26.0454C16.6934 27.3198 14.3734 28 12 28C9.62663 28 7.30656 27.3198 5.33318 26.0454C3.35979 24.771 1.82172 22.9597 0.913465 20.8404C0.00520913 18.7212 -0.232439 16.3892 0.230571 14.1394C0.693582 11.8896 1.83646 9.82307 3.51467 8.20106L12 0V0Z" />
</svg>
