<svg width="20" height="28" viewBox="0 0 20 28" fill="none" xmlns="http://www.w3.org/2000/svg">
<path fill-rule="evenodd" clip-rule="evenodd" d="M2.85714 1.32266e-05L-1.22392e-06 1.33514e-05L-5.48817e-07 15.4447L2.03412e-05 15.4447L2.04953e-05 28.0001L2.85716 28.0001L2.85716 15.4447L8.57144 15.4447L8.57144 28.0001L11.4286 28.0001L11.4286 15.4447L20 15.4447L20 15.4444L20 15.4444L20 12.5555L20 12.5555L20 1.24772e-05L17.1428 1.26021e-05L17.1428 12.5555L11.4286 12.5555L11.4286 1.28519e-05L8.57142 1.29768e-05L8.57142 12.5555L2.85714 12.5555L2.85714 1.32266e-05Z" fill="#47474D"/>
</svg>
