<svg width="24" height="28" viewBox="0 0 24 28" fill="none" xmlns="http://www.w3.org/2000/svg">
<path d="M11.9993 21.8331C17.1052 21.8331 21.5711 23.8583 24 26.88L21.4317 28C19.4546 25.8398 15.9689 24.4048 11.9993 24.4048C8.02974 24.4048 4.54401 25.8398 2.5669 28L0 26.8787C2.42886 23.857 6.89339 21.8331 11.9993 21.8331ZM11.9993 0C13.8483 0 15.6215 0.677362 16.9289 1.88307C18.2363 3.08878 18.9708 4.72408 18.9708 6.42921V12.8322C18.9707 14.489 18.2771 16.0817 17.0346 17.2784C15.7921 18.475 14.0967 19.1831 12.3019 19.255L11.9993 19.2614C10.1504 19.2614 8.37713 18.5841 7.06973 17.3783C5.76232 16.1726 5.02783 14.5373 5.02783 12.8322V6.42921C5.02793 4.77245 5.72155 3.17968 6.96403 1.98306C8.20651 0.78643 9.90193 0.0783328 11.6967 0.00642933L11.9993 0ZM11.9993 2.57169C10.9324 2.57163 9.90575 2.94757 9.12948 3.62258C8.35321 4.2976 7.88598 5.22066 7.82339 6.20291L7.81642 6.42921V12.8322C7.81537 13.8363 8.23892 14.8012 8.99707 15.5219C9.75522 16.2426 10.7882 16.6623 11.8766 16.6918C12.9649 16.7212 14.0228 16.3582 14.8255 15.6797C15.6282 15.0013 16.1124 14.061 16.1752 13.0585L16.1822 12.8322V6.42921C16.1822 5.40613 15.7415 4.42496 14.957 3.70153C14.1726 2.9781 13.1087 2.57169 11.9993 2.57169Z" fill="#47474D"/>
</svg>
