<svg width="28" height="28" viewBox="0 0 28 28" fill="none" xmlns="http://www.w3.org/2000/svg">
<path d="M14 0C21.7322 0 28 6.2678 28 14C28 21.7322 21.7322 28 14 28C6.2678 28 0 21.7322 0 14C0 6.2678 6.2678 0 14 0ZM14 2.8C7.8148 2.8 2.8 7.8148 2.8 14C2.8 20.1852 7.8148 25.2 14 25.2C20.1852 25.2 25.2 20.1852 25.2 14C25.2 7.8148 20.1852 2.8 14 2.8ZM19.3662 7.4718C19.698 7.2394 20.1488 7.2786 20.4344 7.5656C20.72 7.8512 20.7564 8.302 20.5226 8.6296C17.4706 12.894 15.7906 15.1788 15.4854 15.4854C14.665 16.3044 13.335 16.3044 12.5146 15.4854C11.6956 14.665 11.6956 13.335 12.5146 12.5146C13.0382 11.9924 15.3216 10.311 19.3662 7.4718ZM21.7 12.6C22.4728 12.6 23.1 13.2272 23.1 14C23.1 14.7728 22.4728 15.4 21.7 15.4C20.9272 15.4 20.3 14.7728 20.3 14C20.3 13.2272 20.9272 12.6 21.7 12.6ZM6.3 12.6C7.0728 12.6 7.7 13.2272 7.7 14C7.7 14.7728 7.0728 15.4 6.3 15.4C5.5272 15.4 4.9 14.7728 4.9 14C4.9 13.2272 5.5272 12.6 6.3 12.6ZM9.5452 7.5656C10.0912 8.1116 10.0912 8.9978 9.5452 9.5452C8.9992 10.0912 8.1116 10.0912 7.5656 9.5452C7.0196 8.9992 7.0196 8.1116 7.5656 7.5656C8.1116 7.0196 8.9978 7.0196 9.5452 7.5656ZM14 4.9C14.7728 4.9 15.4 5.5272 15.4 6.3C15.4 7.0728 14.7728 7.7 14 7.7C13.2272 7.7 12.6 7.0728 12.6 6.3C12.6 5.5272 13.2272 4.9 14 4.9Z" fill="#47474D"/>
</svg>
