<svg width="28" height="28" viewBox="0 0 28 28" fill="none" xmlns="http://www.w3.org/2000/svg">
<path d="M14 0C21.7322 0 28 6.2678 28 14C28 21.7322 21.7322 28 14 28C6.2678 28 0 21.7322 0 14C0 6.2678 6.2678 0 14 0ZM8.4 15.4L2.8868 15.4014C3.19871 17.8685 4.3224 20.1618 6.08092 21.92C7.83944 23.6783 10.1329 24.8016 12.6 25.1132V19.6C11.4861 19.6 10.4178 19.1575 9.63015 18.3698C8.8425 17.5822 8.4 16.5139 8.4 15.4ZM25.1132 15.4014L19.6 15.4C19.6 16.5139 19.1575 17.5822 18.3698 18.3698C17.5822 19.1575 16.5139 19.6 15.4 19.6L15.4014 25.1132C17.8683 24.8014 20.1614 23.6779 21.9196 21.9196C23.6779 20.1614 24.8014 17.8683 25.1132 15.4014V15.4014ZM16.8 14H11.2V15.4C11.2 15.7713 11.3475 16.1274 11.6101 16.3899C11.8726 16.6525 12.2287 16.8 12.6 16.8H15.4C15.7713 16.8 16.1274 16.6525 16.3899 16.3899C16.6525 16.1274 16.8 15.7713 16.8 15.4V14ZM14 2.8C11.2719 2.80005 8.63768 3.79566 6.59155 5.6C4.54543 7.40435 3.2281 9.89338 2.8868 12.6H8.4C8.4 12.2287 8.5475 11.8726 8.81005 11.6101C9.0726 11.3475 9.4287 11.2 9.8 11.2H18.2C18.5713 11.2 18.9274 11.3475 19.1899 11.6101C19.4525 11.8726 19.6 12.2287 19.6 12.6H25.1132C24.7719 9.89338 23.4546 7.40435 21.4084 5.6C19.3623 3.79566 16.7281 2.80005 14 2.8V2.8Z" fill="#47474D"/>
</svg>
